<svg xmlns="http://www.w3.org/2000/svg" width="15" height="14" viewBox="0 0 15 14"><g><g><path fill="#d8232a" d="M7.791.004S8.58-.059 9.302 1.33l1.177 2.262 2.815.573c1.34.272 1.413 1.066 1.413 1.066s.166.688-.84 1.826c-.89 1.005-1.726 1.952-1.726 1.952l.376 3.187c.162 1.37-.322 1.68-.322 1.68s-.765.288-2.09-.37l-2.314-1.15-2.8 1.392c-1.16.576-1.82.028-1.82.028s-.281-.093-.128-1.391l.399-3.376-1.726-1.952C.71 5.918.69 5.131.69 5.131S.84 4.46 2.116 4.2l2.987-.608L6.24 1.41C6.972 0 7.79.004 7.79.004"/></g></g></svg>