<svg xmlns="http://www.w3.org/2000/svg" width="12" height="11" viewBox="0 0 12 11"><g><g><path fill="#3f444e" d="M7.601 1.044l.959 1.777 2.291.45c1.091.215 1.151.838 1.151.838s.136.54-.684 1.435L9.913 7.078l.306 2.504c.132 1.077-.262 1.319-.262 1.319s-.623.227-1.702-.29l-1.884-.903-2.28 1.093c-.945.453-1.482.023-1.482.023s-.229-.074-.104-1.094l.324-2.652s-.68-.744-1.405-1.534C.604 4.65.588 4.032.588 4.032s.122-.529 1.162-.733l2.432-.478.925-1.713C5.704 0 6.37.003 6.37.003s.642-.05 1.23 1.041zM2.904 4.31c-.473.093-.472.316-.472.316s-.042.206.35.633l1.295 1.414-.205 1.679c-.083.68.05.845.05.845s.206.265.71.024l1.748-.838 1.757.842c.5.24.76.152.76.152s.105-.083.047-.56l-.262-2.144 1.402-1.53c.342-.373.302-.543.302-.543s-.024-.19-.464-.277l-2.12-.416-.994-1.843c-.24-.445-.437-.486-.437-.486s-.181.043-.422.49l-.992 1.839-2.053.403z"/></g></g></svg>